SplineFontDB: 3.0
FontName: BenchTwelve-Regular
FullName: BenchTwelve Regular
FamilyName: BenchTwelve
Weight: UltraLight
Copyright: (c) 2012 Vernon Adams
Version: 1.000;PS (version unavailable);hotconv 1.0.57;makeotf.lib2.0.21895 DEVELOPMENT
ItalicAngle: 0
UnderlinePosition: -50
UnderlineWidth: 50
Ascent: 1638
Descent: 410
sfntRevision: 0x00010000
LayerCount: 2
Layer: 0 0 "Back"  1
Layer: 1 0 "Fore"  0
XUID: [1021 14 500265001 5012162]
FSType: 8
OS2Version: 3
OS2_WeightWidthSlopeOnly: 0
OS2_UseTypoMetrics: 1
CreationTime: 1343066233
ModificationTime: 1343062768
PfmFamily: 81
TTFWeight: 200
TTFWidth: 5
LineGap: 9
VLineGap: 0
Panose: 0 0 0 0 0 0 0 0 0 0
OS2TypoAscent: 6443
OS2TypoAOffset: 0
OS2TypoDescent: -2148
OS2TypoDOffset: 0
OS2TypoLinegap: 0
OS2WinAscent: 8589
OS2WinAOffset: 0
OS2WinDescent: 0
OS2WinDOffset: 0
HheadAscent: 750
HheadAOffset: 0
HheadDescent: -250
HheadDOffset: 0
OS2SubXSize: 1331
OS2SubYSize: 1228
OS2SubXOff: 0
OS2SubYOff: 153
OS2SupXSize: 1331
OS2SupYSize: 1228
OS2SupXOff: 0
OS2SupYOff: 716
OS2StrikeYSize: 50
OS2StrikeYPos: 603
OS2Vendor: 'newt'
OS2CodePages: 00000001.00000000
OS2UnicodeRanges: 00000001.00000000.00000000.00000000
DEI: 91125
LangName: 1033 "" "BenchTwelve Regular" "" "1.000;newt;BenchTwelve-Regular" "BenchTwelve-Regular" "Version 1.000;PS (version unavailable);hotconv 1.0.57;makeotf.lib2.0.21895 DEVELOPMENT" "" "" "" "" "" "" "" "" "" "" "BenchTwelve" "" "BenchTwelve Regular" 
Encoding: UnicodeBmp
UnicodeInterp: none
NameList: Adobe Glyph List
DisplaySize: -72
AntiAlias: 1
FitToEm: 1
WinInfo: 99 11 4
BeginPrivate: 6
BlueValues 27 [-41 0 1006 1053 1455 1475]
OtherBlues 11 [-492 -427]
BlueScale 8 0.039625
StdHW 5 [160]
StdVW 4 [71]
ExpansionFactor 4 0.06
EndPrivate
BeginChars: 65537 105

StartChar: .notdef
Encoding: 65536 -1 0
Width: 349
Flags: W
LayerCount: 2
Fore
SplineSet
35 -299 m 1
 35 1475 l 1
 314 1475 l 1
 314 -299 l 1
 35 -299 l 1
70 -197 m 1
 280 -197 l 1
 280 1373 l 1
 70 1373 l 1
 70 -197 l 1
EndSplineSet
EndChar

StartChar: exclam
Encoding: 33 33 2
Width: 286
Flags: W
LayerCount: 2
Fore
SplineSet
143 432 m 2
 128 432 128 456 127 499 c 2
 104 1371 l 2
 103 1414 111 1438 127 1438 c 2
 158 1438 l 2
 172 1438 183 1386 182 1343 c 2
 160 499 l 2
 159 456 159 432 144 432 c 2
 143 432 l 2
142 0 m 0
 109 0 98 71 98 119 c 0
 98 170 111 231 142 231 c 0
 176 231 189 166 189 119 c 0
 189 72 181 0 142 0 c 0
EndSplineSet
EndChar

StartChar: quotedbl
Encoding: 34 34 3
Width: 379
Flags: W
LayerCount: 2
Fore
SplineSet
247 772 m 2
 233 772 233 796 231 839 c 2
 207 1351 l 2
 205 1394 217 1438 231 1438 c 2
 263 1438 l 2
 278 1438 288 1393 286 1350 c 2
 265 839 l 2
 263 796 264 772 249 772 c 2
 247 772 l 2
130 772 m 2
 116 772 116 796 114 839 c 2
 91 1351 l 2
 89 1394 99 1438 115 1438 c 2
 146 1438 l 2
 160 1438 170 1393 168 1350 c 2
 147 839 l 2
 146 796 146 772 132 772 c 2
 130 772 l 2
EndSplineSet
EndChar

StartChar: numbersign
Encoding: 35 35 4
Width: 673
Flags: W
LayerCount: 2
Fore
SplineSet
240 587 m 1
 402 587 l 1
 421 834 l 1
 259 834 l 1
 240 587 l 1
126 -205 m 2
 120 -205 116 -187 118 -170 c 2
 165 417 l 1
 113 417 l 2
 98 417 90 431 90 474 c 2
 90 530 l 2
 90 573 98 587 113 587 c 2
 178 587 l 1
 198 834 l 1
 139 834 l 2
 124 834 117 848 117 891 c 2
 117 949 l 2
 117 992 124 1006 139 1006 c 2
 211 1006 l 1
 260 1612 l 2
 262 1633 270 1647 276 1647 c 2
 314 1647 l 2
 319 1647 322 1629 321 1612 c 2
 272 1006 l 1
 434 1006 l 1
 484 1612 l 2
 486 1633 493 1647 500 1647 c 2
 537 1647 l 2
 542 1647 545 1629 543 1612 c 2
 494 1006 l 1
 560 1006 l 2
 574 1006 581 992 581 949 c 2
 581 891 l 2
 581 848 574 834 560 834 c 2
 482 834 l 1
 462 587 l 1
 532 587 l 2
 549 587 555 573 555 530 c 2
 555 474 l 2
 555 431 549 417 532 417 c 2
 448 417 l 1
 401 -170 l 2
 399 -191 392 -205 385 -205 c 2
 349 -205 l 2
 343 -205 340 -187 341 -170 c 2
 388 417 l 1
 226 417 l 1
 179 -170 l 2
 177 -191 170 -205 162 -205 c 2
 126 -205 l 2
EndSplineSet
EndChar

StartChar: dollar
Encoding: 36 36 5
Width: 881
Flags: W
LayerCount: 2
Fore
SplineSet
379 803 m 1
 379 1390 l 1
 251 1376 169 1270 169 1094 c 0
 169 924 206 868 379 803 c 1
427 43 m 1
 430 43 l 1
 590 47 666 145 666 379 c 0
 666 534 655 635 446 703 c 0
 440 705 433 707 427 709 c 1
 427 43 l 1
409 -201 m 2
 398 -201 l 2
 387 -201 379 -186 379 -139 c 2
 379 -20 l 1
 246 -15 130 24 101 54 c 0
 92 64 95 68 95 79 c 2
 95 89 l 1
 100 111 109 111 121 111 c 0
 144 111 210 53 379 44 c 1
 379 726 l 1
 168 802 96 876 96 1084 c 0
 96 1334 221 1441 379 1454 c 1
 379 1580 l 2
 379 1626 387 1641 398 1641 c 2
 409 1641 l 2
 420 1641 427 1626 427 1580 c 2
 427 1455 l 1
 527 1453 604 1437 671 1376 c 1
 679 1366 684 1363 684 1335 c 2
 684 1325 l 2
 684 1314 676 1310 663 1310 c 0
 640 1310 607 1387 427 1392 c 1
 427 785 l 1
 439 781 451 777 463 773 c 0
 666 706 741 616 741 394 c 0
 741 97 649 -16 427 -21 c 1
 427 -139 l 2
 427 -186 420 -201 409 -201 c 2
EndSplineSet
EndChar

StartChar: percent
Encoding: 37 37 6
Width: 982
Flags: W
LayerCount: 2
Fore
SplineSet
365 -82 m 2
 353 -82 345 -45 350 -12 c 2
 572 1466 l 2
 579 1508 594 1536 609 1536 c 2
 620 1536 l 2
 632 1536 641 1499 635 1466 c 1
 413 -12 l 2
 407 -54 393 -82 376 -82 c 2
 365 -82 l 2
239 621 m 0
 137 621 85 818 85 1056 c 0
 85 1292 135 1497 239 1497 c 0
 341 1497 391 1292 391 1056 c 0
 391 818 339 621 239 621 c 0
239 761 m 0
 298 761 330 875 330 1059 c 0
 330 1247 300 1357 239 1357 c 0
 179 1357 146 1247 146 1059 c 0
 146 875 182 761 239 761 c 0
745 1 m 0
 645 1 593 198 593 436 c 0
 593 672 643 877 745 877 c 0
 848 877 898 672 898 436 c 0
 898 198 847 1 745 1 c 0
745 141 m 0
 805 141 837 255 837 439 c 0
 837 627 806 737 745 737 c 0
 688 737 654 627 654 439 c 0
 654 255 690 141 745 141 c 0
EndSplineSet
EndChar

StartChar: parenleft
Encoding: 40 40 7
Width: 377
Flags: W
LayerCount: 2
Fore
SplineSet
266 -143 m 0
 131 -62 92 299 92 699 c 0
 92 1100 131 1460 266 1540 c 0
 279 1548 292 1508 292 1470 c 2
 292 1450 l 2
 292 1381 277 1381 256 1350 c 0
 212 1284 168 1162 168 699 c 0
 168 236 213 112 257 46 c 1
 279 15 292 14 292 -55 c 2
 292 -73 l 2
 292 -111 279 -151 266 -143 c 0
EndSplineSet
EndChar

StartChar: parenright
Encoding: 41 41 8
Width: 382
Flags: W
LayerCount: 2
Fore
SplineSet
113 -143 m 0
 100 -151 86 -111 86 -73 c 2
 86 -53 l 2
 86 16 102 16 122 47 c 0
 167 113 211 235 211 698 c 0
 211 1161 167 1285 122 1351 c 0
 102 1382 86 1383 86 1452 c 2
 86 1470 l 2
 86 1508 100 1548 113 1540 c 0
 248 1459 288 1098 288 698 c 0
 288 297 248 -63 113 -143 c 0
EndSplineSet
EndChar

StartChar: asterisk
Encoding: 42 42 9
Width: 524
Flags: W
LayerCount: 2
Fore
SplineSet
174 295 m 0
 158 295 141 339 141 389 c 0
 141 467 220 685 237 741 c 1
 107 824 l 2
 93 833 82 869 82 911 c 0
 82 961 96 1009 114 1009 c 0
 134 1009 225 853 247 820 c 1
 240 948 229 1098 229 1226 c 0
 229 1276 245 1309 261 1309 c 0
 277 1309 292 1271 292 1221 c 0
 292 1095 279 946 274 820 c 1
 296 853 387 1009 408 1009 c 0
 425 1009 439 961 439 911 c 0
 439 869 428 833 414 824 c 2
 284 741 l 1
 301 685 381 467 381 389 c 0
 381 339 365 295 348 295 c 0
 336 295 324 316 320 346 c 1
 260 695 l 1
 201 346 l 2
 196 316 186 295 174 295 c 0
EndSplineSet
EndChar

StartChar: plus
Encoding: 43 43 10
Width: 512
Flags: W
LayerCount: 2
Fore
SplineSet
226 20 m 2
 212 20 200 54 200 97 c 2
 200 360 l 2
 200 380 193 397 187 397 c 2
 104 397 l 2
 89 397 78 431 78 474 c 2
 78 625 l 2
 78 668 89 702 104 702 c 2
 187 702 l 2
 193 702 200 719 200 739 c 2
 200 1002 l 2
 200 1045 212 1079 226 1079 c 2
 285 1079 l 2
 300 1079 311 1045 311 1002 c 2
 311 739 l 2
 311 719 318 702 324 702 c 2
 406 702 l 2
 420 702 431 668 431 625 c 2
 431 474 l 2
 431 431 420 397 406 397 c 2
 324 397 l 2
 318 397 311 380 311 360 c 2
 311 97 l 2
 311 54 300 20 285 20 c 2
 226 20 l 2
EndSplineSet
EndChar

StartChar: comma
Encoding: 44 44 11
Width: 289
Flags: W
LayerCount: 2
Fore
SplineSet
109 -301 m 0
 97 -307 87 -292 87 -256 c 2
 87 -246 l 2
 87 -192 93 -198 108 -171 c 0
 131 -128 142 -51 142 -27 c 0
 142 -11 142 0 136 0 c 2
 108 0 l 2
 95 0 87 12 87 50 c 2
 87 253 l 2
 87 296 93 317 108 317 c 2
 175 317 l 2
 190 317 202 283 202 240 c 2
 202 95 l 2
 202 -142 157 -278 109 -301 c 0
EndSplineSet
EndChar

StartChar: hyphen
Encoding: 45 45 12
Width: 358
Flags: W
LayerCount: 2
Fore
SplineSet
100 484 m 2
 84 484 77 498 77 541 c 2
 77 602 l 2
 77 645 84 659 100 659 c 2
 254 659 l 2
 268 659 278 645 278 602 c 2
 278 541 l 2
 278 498 268 484 254 484 c 2
 100 484 l 2
EndSplineSet
EndChar

StartChar: period
Encoding: 46 46 13
Width: 269
Flags: W
LayerCount: 2
Fore
SplineSet
110 0 m 2
 96 0 84 34 84 77 c 2
 84 221 l 2
 84 264 96 298 110 298 c 2
 157 298 l 2
 172 298 183 264 183 221 c 2
 183 77 l 2
 183 34 172 0 157 0 c 2
 110 0 l 2
EndSplineSet
EndChar

StartChar: slash
Encoding: 47 47 14
Width: 457
Flags: W
LayerCount: 2
Fore
SplineSet
81 -205 m 2
 75 -205 71 -187 73 -170 c 2
 307 1612 l 2
 309 1633 318 1647 324 1647 c 2
 380 1647 l 2
 385 1647 390 1629 388 1612 c 2
 154 -170 l 2
 151 -191 145 -205 138 -205 c 2
 81 -205 l 2
EndSplineSet
EndChar

StartChar: zero
Encoding: 48 48 15
Width: 739
Flags: W
LayerCount: 2
Fore
SplineSet
368 -21 m 0
 212 -21 89 153 89 732 c 0
 89 1295 212 1455 368 1455 c 0
 526 1455 648 1301 648 732 c 0
 648 153 526 -21 368 -21 c 0
369 43 m 0
 502 43 569 213 569 732 c 0
 569 1224 506 1392 369 1392 c 0
 233 1392 166 1222 166 732 c 0
 166 218 237 43 369 43 c 0
EndSplineSet
EndChar

StartChar: one
Encoding: 49 49 16
Width: 378
Flags: W
LayerCount: 2
Fore
SplineSet
221 0 m 2
 206 0 199 24 199 67 c 2
 199 1212 l 2
 199 1232 193 1250 185 1248 c 2
 92 1222 l 2
 78 1218 70 1243 70 1286 c 2
 70 1321 l 2
 70 1364 78 1386 91 1390 c 2
 254 1435 l 2
 267 1439 276 1414 276 1371 c 2
 276 67 l 2
 276 24 267 0 254 0 c 2
 221 0 l 2
EndSplineSet
EndChar

StartChar: three
Encoding: 51 51 17
Width: 789
Flags: W
LayerCount: 2
Fore
SplineSet
398 -41 m 0
 274 -41 179 19 94 333 c 1
 100 371 l 1
 155 397 l 1
 168 387 169 373 174 361 c 1
 237 169 299 135 398 135 c 0
 530 135 617 209 617 390 c 0
 617 657 530 639 368 639 c 0
 360 639 355 651 354 680 c 0
 354 681 354 681 352 682 c 0
 352 683 352 683 352 761 c 0
 352 771 354 780 355 787 c 1
 355 791 l 1
 357 808 361 815 368 815 c 0
 536 815 608 836 608 1053 c 0
 608 1254 530 1299 398 1299 c 0
 299 1299 214 1265 167 1054 c 0
 164 1040 163 1027 149 1017 c 1
 93 1043 l 1
 88 1082 l 1
 166 1436 274 1475 398 1475 c 0
 554 1475 687 1383 687 1063 c 0
 687 863 643 760 579 727 c 1
 644 690 694 575 694 375 c 0
 694 55 554 -41 398 -41 c 0
EndSplineSet
EndChar

StartChar: six
Encoding: 54 54 18
Width: 726
Flags: W
LayerCount: 2
Fore
SplineSet
356 -42 m 0
 134 -42 90 292 90 736 c 0
 90 1295 186 1472 379 1472 c 0
 442 1472 532 1425 574 1377 c 0
 579 1370 583 1357 583 1339 c 0
 583 1334 582 1329 581 1324 c 2
 570 1229 l 2
 568 1211 564 1203 560 1203 c 0
 558 1203 555 1204 553 1206 c 0
 525 1245 432 1295 372 1295 c 0
 226 1295 171 1152 171 910 c 2
 171 847 l 1
 251 881 318 896 372 896 c 0
 580 896 636 683 636 426 c 0
 636 61 514 -42 356 -42 c 0
356 134 m 0
 489 134 558 190 558 434 c 0
 558 606 523 735 370 735 c 0
 319 735 253 720 168 686 c 1
 168 555 l 2
 168 287 225 134 356 134 c 0
EndSplineSet
EndChar

StartChar: seven
Encoding: 55 55 19
Width: 456
Flags: W
LayerCount: 2
Fore
SplineSet
179 0 m 2
 164 0 152 26 157 67 c 2
 279 1236 l 2
 281 1255 276 1269 269 1269 c 2
 98 1269 l 2
 83 1269 75 1293 75 1336 c 2
 75 1371 l 2
 75 1414 83 1438 98 1438 c 2
 349 1438 l 2
 365 1438 374 1413 370 1371 c 2
 234 67 l 2
 229 26 226 0 211 0 c 2
 179 0 l 2
EndSplineSet
EndChar

StartChar: eight
Encoding: 56 56 20
Width: 745
Flags: W
LayerCount: 2
Fore
SplineSet
372 -41 m 0
 216 -41 93 -42 93 403 c 0
 93 561 139 695 181 752 c 1
 155 795 120 909 120 1059 c 0
 120 1398 216 1473 372 1473 c 0
 530 1473 618 1411 618 1029 c 0
 618 879 584 737 547 699 c 1
 604 663 652 545 652 387 c 0
 652 -35 530 -41 372 -41 c 0
492 761 m 1
 512 812 546 887 546 1025 c 0
 546 1295 485 1297 372 1297 c 0
 247 1297 198 1271 198 1029 c 0
 198 832 197 857 492 761 c 1
372 135 m 0
 505 135 573 135 573 403 c 0
 573 634 505 588 235 687 c 1
 190 613 170 498 170 403 c 0
 170 135 240 135 372 135 c 0
EndSplineSet
EndChar

StartChar: nine
Encoding: 57 57 21
Width: 727
Flags: W
LayerCount: 2
Fore
SplineSet
355 695 m 0
 406 695 473 710 557 744 c 1
 557 875 l 2
 557 1143 501 1296 369 1296 c 0
 236 1296 167 1240 167 996 c 0
 167 824 203 695 355 695 c 0
345 -42 m 0
 284 -42 193 5 152 53 c 0
 146 60 143 73 143 91 c 2
 143 106 l 1
 154 201 l 2
 156 219 161 227 165 227 c 0
 167 227 170 226 171 224 c 0
 199 185 293 135 352 135 c 0
 499 135 553 278 553 520 c 2
 553 583 l 1
 475 549 407 534 352 534 c 0
 145 534 89 747 89 1004 c 0
 89 1369 212 1472 369 1472 c 0
 591 1472 635 1138 635 694 c 0
 635 135 539 -42 345 -42 c 0
EndSplineSet
EndChar

StartChar: colon
Encoding: 58 58 22
Width: 291
Flags: W
LayerCount: 2
Fore
SplineSet
122 754 m 2
 108 754 96 788 96 831 c 2
 96 975 l 2
 96 1018 108 1052 122 1052 c 2
 169 1052 l 2
 184 1052 195 1018 195 975 c 2
 195 831 l 2
 195 788 184 754 169 754 c 2
 122 754 l 2
122 0 m 2
 108 0 96 34 96 77 c 2
 96 221 l 2
 96 264 108 298 122 298 c 2
 169 298 l 2
 184 298 195 264 195 221 c 2
 195 77 l 2
 195 34 184 0 169 0 c 2
 122 0 l 2
EndSplineSet
EndChar

StartChar: semicolon
Encoding: 59 59 23
Width: 307
Flags: W
LayerCount: 2
Fore
SplineSet
130 754 m 2
 116 754 105 788 105 831 c 2
 105 975 l 2
 105 1018 116 1052 130 1052 c 2
 177 1052 l 2
 192 1052 203 1018 203 975 c 2
 203 831 l 2
 203 788 192 754 177 754 c 2
 130 754 l 2
118 -301 m 0
 106 -307 96 -292 96 -256 c 2
 96 -246 l 2
 96 -192 102 -198 117 -171 c 0
 140 -128 151 -51 151 -27 c 0
 151 -11 151 0 145 0 c 2
 117 0 l 2
 104 0 96 12 96 50 c 2
 96 253 l 2
 96 296 102 317 117 317 c 2
 184 317 l 2
 199 317 211 283 211 240 c 2
 211 95 l 2
 211 -142 166 -278 118 -301 c 0
EndSplineSet
EndChar

StartChar: less
Encoding: 60 60 24
Width: 494
Flags: W
LayerCount: 2
Fore
SplineSet
391 -23 m 0
 388 -23 384 -14 377 -5 c 2
 100 396 l 2
 86 417 78 462 78 502 c 2
 78 612 l 2
 78 651 86 685 101 708 c 2
 376 1145 l 2
 382 1153 386 1157 390 1157 c 0
 397 1157 400 1143 400 1115 c 2
 400 1031 l 2
 400 988 392 971 377 947 c 2
 137 563 l 2
 135 560 134 555 134 550 c 0
 134 546 135 541 138 538 c 2
 376 193 l 2
 392 170 400 142 400 99 c 2
 400 15 l 2
 400 -10 397 -23 391 -23 c 0
EndSplineSet
EndChar

StartChar: equal
Encoding: 61 61 25
Width: 397
Flags: W
LayerCount: 2
Fore
SplineSet
104 617 m 2
 89 617 85 631 85 674 c 2
 85 718 l 2
 85 761 89 775 104 775 c 2
 289 775 l 2
 304 775 309 761 309 718 c 2
 309 674 l 2
 309 631 304 617 289 617 c 2
 104 617 l 2
104 312 m 2
 89 312 85 326 85 369 c 2
 85 413 l 2
 85 456 89 470 104 470 c 2
 289 470 l 2
 304 470 309 456 309 413 c 2
 309 369 l 2
 309 326 304 312 289 312 c 2
 104 312 l 2
EndSplineSet
EndChar

StartChar: greater
Encoding: 62 62 26
Width: 496
Flags: W
LayerCount: 2
Fore
SplineSet
103 -23 m 0
 96 -23 93 -9 93 19 c 2
 93 103 l 2
 93 146 101 163 116 187 c 2
 356 571 l 2
 358 574 358 579 358 584 c 0
 358 588 357 593 355 596 c 2
 117 941 l 2
 101 964 93 992 93 1035 c 2
 93 1119 l 2
 93 1144 96 1157 101 1157 c 0
 105 1157 109 1148 116 1139 c 2
 392 738 l 2
 406 717 415 672 415 632 c 2
 415 522 l 2
 415 483 406 448 392 426 c 2
 116 -11 l 2
 111 -19 106 -23 103 -23 c 0
EndSplineSet
EndChar

StartChar: A
Encoding: 65 65 27
Width: 700
Flags: W
LayerCount: 2
Fore
SplineSet
227 420 m 2
 485 420 l 2
 487 420 487 423 487 425 c 0
 487 427 487 429 485 430 c 1
 358 1278 l 2
 357 1279 357 1280 357 1280 c 2
 356 1280 356 1278 356 1278 c 1
 220 436 l 2
 219 431 219 428 219 427 c 0
 219 425 222 420 227 420 c 2
80 0 m 2
 71 0 65 11 65 32 c 0
 65 42 63 39 66 53 c 2
 305 1380 l 2
 312 1421 323 1435 337 1438 c 1
 378 1438 l 1
 392 1435 403 1421 409 1380 c 2
 629 53 l 2
 631 39 636 41 636 31 c 0
 636 11 631 0 621 0 c 2
 586 0 l 2
 572 0 554 9 548 53 c 2
 504 355 l 1
 501 360 l 1
 202 360 l 1
 199 354 l 1
 148 53 l 2
 140 10 131 0 115 0 c 2
 80 0 l 2
EndSplineSet
EndChar

StartChar: B
Encoding: 66 66 28
Width: 873
Flags: W
LayerCount: 2
Fore
SplineSet
130 0 m 2
 114 0 103 0 103 37 c 2
 103 1399 l 2
 103 1438 114 1438 130 1438 c 2
 453 1438 l 2
 626 1438 743 1342 743 1043 c 0
 743 932 711 826 627 772 c 0
 623 769 621 766 621 765 c 0
 621 763 624 760 628 758 c 0
 716 703 783 590 783 424 c 0
 783 96 662 0 433 0 c 2
 130 0 l 2
194 795 m 2
 506 795 l 2
 599 795 669 876 669 1046 c 0
 669 1276 605 1378 456 1378 c 2
 194 1378 l 2
 186 1378 180 1378 180 1358 c 2
 180 810 l 2
 180 795 186 795 194 795 c 2
194 60 m 2
 446 60 l 2
 643 60 702 187 702 417 c 0
 702 623 610 737 500 737 c 2
 194 737 l 2
 186 737 180 737 180 718 c 2
 180 75 l 2
 180 60 186 60 194 60 c 2
EndSplineSet
EndChar

StartChar: C
Encoding: 67 67 29
Width: 671
Flags: W
LayerCount: 2
Fore
SplineSet
431 -21 m 0
 276 -21 89 22 89 721 c 0
 89 1383 272 1455 443 1455 c 0
 505 1455 553 1443 579 1432 c 0
 583 1430 591 1426 591 1417 c 2
 591 1376 l 2
 591 1368 588 1367 584 1367 c 0
 582 1367 523 1392 452 1392 c 0
 309 1392 167 1317 167 721 c 0
 167 120 285 44 432 44 c 0
 468 44 529 52 562 63 c 1
 569 55 l 1
 569 7 l 1
 562 -2 l 1
 519 -17 462 -21 431 -21 c 0
EndSplineSet
EndChar

StartChar: D
Encoding: 68 68 30
Width: 862
Flags: W
LayerCount: 2
Fore
SplineSet
125 0 m 2
 111 0 103 4 103 37 c 2
 103 1411 l 2
 103 1434 111 1438 125 1438 c 2
 425 1438 l 2
 639 1438 775 1293 775 721 c 0
 775 102 675 0 425 0 c 2
 125 0 l 2
190 60 m 2
 425 60 l 2
 648 60 697 202 697 721 c 0
 697 1162 633 1378 425 1378 c 2
 189 1378 l 2
 184 1378 180 1374 180 1364 c 2
 180 78 l 2
 180 64 183 60 190 60 c 2
EndSplineSet
EndChar

StartChar: E
Encoding: 69 69 31
Width: 665
Flags: W
LayerCount: 2
Fore
SplineSet
125 0 m 2
 111 0 103 0 103 32 c 2
 103 1406 l 2
 103 1433 111 1438 125 1438 c 2
 549 1438 l 2
 563 1438 571 1438 571 1411 c 2
 571 1405 l 2
 571 1378 563 1378 549 1378 c 2
 189 1378 l 2
 181 1378 180 1373 180 1353 c 2
 180 783 l 1
 184 775 l 1
 504 775 l 2
 519 775 527 775 527 750 c 2
 527 743 l 2
 527 716 519 716 504 716 c 2
 185 716 l 1
 180 699 l 1
 180 60 l 1
 550 60 l 2
 564 60 572 60 572 33 c 2
 572 27 l 2
 572 0 564 0 550 0 c 2
 125 0 l 2
EndSplineSet
EndChar

StartChar: F
Encoding: 70 70 32
Width: 652
Flags: W
LayerCount: 2
Fore
SplineSet
125 0 m 2
 111 0 103 0 103 32 c 2
 103 1406 l 2
 103 1433 111 1438 125 1438 c 2
 549 1438 l 2
 563 1438 571 1438 571 1411 c 2
 571 1405 l 2
 571 1378 563 1378 549 1378 c 2
 189 1378 l 2
 181 1378 180 1373 180 1353 c 2
 180 783 l 1
 184 775 l 1
 504 775 l 2
 519 775 527 775 527 750 c 2
 527 743 l 2
 527 716 519 716 504 716 c 2
 185 716 l 1
 180 699 l 1
 180 32 l 2
 180 0 172 0 157 0 c 2
 125 0 l 2
EndSplineSet
EndChar

StartChar: G
Encoding: 71 71 33
Width: 820
Flags: W
LayerCount: 2
Fore
SplineSet
658 232 m 0
 619 45 527 -21 431 -21 c 0
 276 -21 89 22 89 721 c 0
 89 1412 290 1455 461 1455 c 0
 530 1455 573 1441 599 1431 c 0
 603 1429 611 1425 611 1416 c 2
 611 1375 l 2
 611 1367 608 1366 604 1366 c 0
 602 1366 541 1392 470 1392 c 0
 327 1392 167 1351 167 721 c 0
 167 120 289 43 422 43 c 0
 578 43 651 294 651 563 c 0
 651 633 649 642 644 642 c 2
 464 642 l 2
 450 642 436 642 436 674 c 2
 436 685 l 2
 436 717 448 717 462 717 c 2
 699 717 l 2
 714 717 725 726 725 683 c 2
 725 35 l 2
 725 -8 717 -15 702 -15 c 0
 687 -15 678 -8 674 35 c 0
 671 65 665 179 665 232 c 0
 665 236 664 238 663 238 c 0
 661 238 659 238 658 232 c 0
EndSplineSet
EndChar

StartChar: H
Encoding: 72 72 34
Width: 791
Flags: W
LayerCount: 2
Fore
SplineSet
127 0 m 2
 111 0 103 4 103 47 c 2
 103 1391 l 2
 103 1434 111 1438 127 1438 c 2
 158 1438 l 2
 172 1438 181 1434 181 1391 c 2
 181 780 l 1
 185 765 l 1
 603 765 l 1
 610 783 l 1
 610 1391 l 2
 610 1434 619 1438 634 1438 c 2
 666 1438 l 2
 680 1438 688 1434 688 1391 c 2
 688 47 l 2
 688 4 680 0 666 0 c 2
 634 0 l 2
 619 0 610 4 610 47 c 2
 610 679 l 1
 604 697 l 1
 186 697 l 1
 181 681 l 1
 181 47 l 2
 181 4 172 0 158 0 c 2
 127 0 l 2
EndSplineSet
EndChar

StartChar: I
Encoding: 73 73 35
Width: 283
Flags: W
LayerCount: 2
Fore
SplineSet
125 0 m 2
 111 0 103 4 103 47 c 2
 103 1391 l 2
 103 1434 111 1438 125 1438 c 2
 157 1438 l 2
 172 1438 180 1434 180 1391 c 2
 180 47 l 2
 180 4 172 0 157 0 c 2
 125 0 l 2
EndSplineSet
EndChar

StartChar: J
Encoding: 74 74 36
Width: 487
Flags: W
LayerCount: 2
Fore
SplineSet
72 -141 m 0
 66 -141 61 -141 61 -118 c 2
 61 -99 l 2
 61 -75 67 -75 72 -75 c 0
 253 -75 308 -66 308 371 c 2
 308 1383 l 2
 308 1426 316 1438 331 1438 c 2
 362 1438 l 2
 377 1438 385 1426 385 1383 c 2
 385 371 l 2
 385 -137 285 -141 72 -141 c 0
EndSplineSet
EndChar

StartChar: K
Encoding: 75 75 37
Width: 639
Flags: W
LayerCount: 2
Fore
SplineSet
124 0 m 2
 110 0 102 24 102 67 c 2
 102 1371 l 2
 102 1414 110 1438 124 1438 c 2
 156 1438 l 2
 171 1438 179 1414 179 1371 c 2
 179 762 l 1
 423 1376 l 2
 437 1410 447 1438 461 1438 c 2
 515 1438 l 2
 529 1438 537 1399 523 1365 c 2
 276 759 l 2
 276 757 275 753 275 748 c 0
 275 745 275 741 277 736 c 2
 547 67 l 2
 560 33 554 0 540 0 c 2
 483 0 l 2
 469 0 459 32 445 67 c 2
 179 735 l 1
 179 67 l 2
 179 24 171 0 156 0 c 2
 124 0 l 2
EndSplineSet
EndChar

StartChar: L
Encoding: 76 76 38
Width: 559
Flags: W
LayerCount: 2
Fore
SplineSet
125 0 m 2
 111 0 103 4 103 47 c 2
 103 1391 l 2
 103 1434 111 1438 125 1438 c 2
 157 1438 l 2
 172 1438 180 1434 180 1391 c 2
 180 78 l 2
 180 58 186 60 194 60 c 2
 461 60 l 2
 474 60 484 60 484 35 c 2
 484 27 l 2
 484 0 474 0 461 0 c 2
 125 0 l 2
EndSplineSet
EndChar

StartChar: M
Encoding: 77 77 39
Width: 923
Flags: W
LayerCount: 2
Fore
SplineSet
119 0 m 2
 105 0 96 24 97 67 c 2
 137 1371 l 2
 138 1412 145 1435 159 1438 c 1
 195 1438 l 1
 209 1435 220 1412 229 1371 c 1
 454 183 l 1
 462 183 l 1
 695 1371 l 2
 704 1412 716 1435 729 1438 c 1
 766 1438 l 1
 780 1435 786 1412 787 1371 c 2
 825 67 l 2
 826 24 819 0 804 0 c 2
 780 0 l 2
 765 0 756 24 755 67 c 2
 725 1177 l 1
 721 1178 l 1
 507 67 l 2
 499 26 485 1 472 1 c 2
 443 0 l 2
 430 0 418 26 410 67 c 2
 203 1165 l 1
 200 1161 l 1
 169 67 l 2
 167 24 159 0 145 0 c 2
 119 0 l 2
EndSplineSet
EndChar

StartChar: N
Encoding: 78 78 40
Width: 794
Flags: W
LayerCount: 2
Fore
SplineSet
127 0 m 2
 111 0 103 14 103 57 c 2
 103 1391 l 2
 103 1434 111 1438 127 1438 c 2
 144 1438 l 2
 152 1438 157 1432 162 1420 c 2
 613 242 l 1
 617 255 l 1
 617 1391 l 2
 617 1434 625 1438 640 1438 c 2
 668 1438 l 2
 683 1438 691 1434 691 1391 c 2
 691 47 l 2
 691 4 683 0 668 0 c 2
 649 0 l 2
 641 0 636 6 632 19 c 2
 181 1182 l 1
 177 1173 l 1
 177 57 l 2
 177 14 168 0 154 0 c 2
 127 0 l 2
EndSplineSet
EndChar

StartChar: O
Encoding: 79 79 41
Width: 863
Flags: W
LayerCount: 2
Fore
SplineSet
431 -21 m 0
 210 -21 91 95 91 724 c 0
 91 1306 210 1455 431 1455 c 0
 655 1455 772 1316 772 724 c 0
 772 85 655 -21 431 -21 c 0
431 43 m 0
 597 43 693 114 693 724 c 0
 693 1273 601 1392 431 1392 c 0
 263 1392 170 1252 170 724 c 0
 170 128 267 43 431 43 c 0
EndSplineSet
EndChar

StartChar: P
Encoding: 80 80 42
Width: 803
Flags: W
LayerCount: 2
Fore
SplineSet
125 0 m 2
 111 0 103 5 103 42 c 2
 103 1393 l 2
 103 1436 111 1438 125 1438 c 2
 351 1438 l 2
 539 1438 714 1429 714 994 c 0
 714 578 586 558 404 558 c 2
 187 558 l 2
 182 558 180 554 180 546 c 2
 180 42 l 2
 180 6 172 0 157 0 c 2
 125 0 l 2
185 618 m 2
 402 618 l 2
 574 618 637 648 637 994 c 0
 637 1368 519 1378 351 1378 c 2
 186 1378 l 2
 182 1378 180 1375 180 1369 c 2
 180 628 l 2
 180 623 180 618 185 618 c 2
EndSplineSet
EndChar

StartChar: Q
Encoding: 81 81 43
Width: 863
Flags: W
LayerCount: 2
Fore
SplineSet
603 -338 m 2
 577 -347 572 -339 563 -305 c 2
 485 -19 l 1
 468 -20 450 -21 431 -21 c 0
 210 -21 91 95 91 724 c 0
 91 1306 210 1455 431 1455 c 0
 655 1455 772 1316 772 724 c 0
 772 216 698 45 555 -4 c 1
 627 -282 l 2
 636 -316 644 -324 618 -333 c 2
 603 -338 l 2
431 43 m 0
 597 43 693 114 693 724 c 0
 693 1273 601 1392 431 1392 c 0
 263 1392 170 1252 170 724 c 0
 170 128 267 43 431 43 c 0
EndSplineSet
EndChar

StartChar: R
Encoding: 82 82 44
Width: 832
Flags: W
LayerCount: 2
Fore
SplineSet
185 688 m 2
 382 688 l 2
 554 688 637 729 637 1054 c 0
 637 1375 519 1378 351 1378 c 2
 186 1378 l 2
 182 1378 180 1375 180 1369 c 2
 180 698 l 2
 180 693 180 688 185 688 c 2
125 0 m 2
 111 0 103 5 103 42 c 2
 103 1393 l 2
 103 1436 111 1438 125 1438 c 2
 351 1438 l 2
 539 1438 714 1438 714 1054 c 0
 714 786 646 685 546 649 c 0
 544 648 541 647 541 643 c 0
 541 641 542 638 543 635 c 1
 571 601 611 535 644 417 c 1
 736 56 l 1
 744 16 730 0 717 0 c 2
 689 0 l 2
 675 0 672 17 664 56 c 1
 572 403 l 1
 536 531 497 599 474 632 c 1
 445 629 415 628 384 628 c 2
 187 628 l 2
 182 628 180 624 180 616 c 2
 180 42 l 2
 180 6 172 0 157 0 c 2
 125 0 l 2
EndSplineSet
EndChar

StartChar: S
Encoding: 83 83 45
Width: 831
Flags: W
LayerCount: 2
Fore
SplineSet
412 -21 m 0
 266 -21 132 21 101 54 c 0
 92 64 95 68 95 79 c 2
 95 89 l 1
 100 111 109 111 121 111 c 0
 146 111 221 43 420 43 c 0
 587 43 666 140 666 379 c 0
 666 534 655 635 446 703 c 0
 183 789 96 855 96 1084 c 0
 96 1350 238 1455 410 1455 c 0
 518 1455 600 1440 671 1376 c 1
 679 1366 684 1363 684 1335 c 2
 684 1325 l 2
 684 1314 676 1310 663 1310 c 0
 639 1310 605 1392 408 1392 c 0
 264 1392 169 1283 169 1094 c 0
 169 899 218 854 463 773 c 0
 666 706 741 616 741 394 c 0
 741 90 645 -21 412 -21 c 0
EndSplineSet
EndChar

StartChar: T
Encoding: 84 84 46
Width: 567
Flags: W
LayerCount: 2
Fore
SplineSet
268 0 m 2
 253 0 245 4 245 47 c 2
 245 1346 l 2
 245 1366 243 1371 236 1371 c 2
 55 1371 l 2
 40 1371 32 1371 32 1398 c 2
 32 1404 l 2
 32 1438 40 1438 55 1438 c 2
 512 1438 l 2
 528 1438 535 1438 535 1404 c 2
 535 1398 l 2
 535 1371 528 1371 512 1371 c 2
 333 1371 l 2
 326 1371 323 1366 323 1346 c 2
 323 47 l 2
 323 4 315 0 300 0 c 2
 268 0 l 2
EndSplineSet
EndChar

StartChar: U
Encoding: 85 85 47
Width: 892
Flags: W
LayerCount: 2
Fore
SplineSet
446 -21 m 0
 249 -21 99 29 99 648 c 2
 99 1391 l 2
 99 1434 107 1438 122 1438 c 2
 154 1438 l 2
 168 1438 177 1434 177 1391 c 2
 177 648 l 2
 177 86 284 43 445 43 c 0
 609 43 715 99 715 648 c 2
 715 1391 l 2
 715 1434 723 1438 738 1438 c 2
 771 1438 l 2
 785 1438 793 1434 793 1391 c 2
 793 648 l 2
 793 29 640 -21 446 -21 c 0
EndSplineSet
EndChar

StartChar: V
Encoding: 86 86 48
Width: 720
Flags: W
LayerCount: 2
Fore
SplineSet
352 0 m 1
 339 3 326 16 317 57 c 1
 65 1371 l 2
 56 1414 61 1438 75 1438 c 2
 114 1438 l 2
 128 1438 139 1419 147 1376 c 2
 372 164 l 1
 576 1376 l 2
 583 1419 592 1438 607 1438 c 2
 645 1438 l 2
 660 1438 664 1414 656 1371 c 2
 421 57 l 2
 414 16 404 3 389 0 c 1
 352 0 l 1
EndSplineSet
EndChar

StartChar: W
Encoding: 87 87 49
Width: 1169
Flags: W
LayerCount: 2
Fore
SplineSet
323 0 m 1
 309 3 297 26 290 67 c 2
 62 1371 l 1
 53 1414 58 1438 72 1438 c 2
 110 1438 l 2
 125 1438 139 1414 146 1371 c 2
 343 192 l 1
 531 1385 l 2
 537 1428 552 1438 565 1438 c 2
 608 1438 l 2
 623 1438 635 1428 643 1385 c 2
 849 192 l 1
 1030 1371 l 2
 1037 1414 1049 1438 1063 1438 c 2
 1099 1438 l 2
 1114 1438 1116 1414 1109 1371 c 2
 900 67 l 2
 894 26 883 3 869 0 c 1
 830 0 l 1
 815 3 803 25 796 67 c 2
 587 1294 l 1
 394 67 l 2
 388 26 377 3 363 0 c 1
 323 0 l 1
EndSplineSet
EndChar

StartChar: X
Encoding: 88 88 50
Width: 763
Flags: W
LayerCount: 2
Fore
SplineSet
127 0 m 2
 94 0 l 2
 88 0 83 7 83 20 c 0
 83 31 86 47 93 67 c 2
 340 748 l 1
 128 1371 l 1
 122 1392 117 1409 117 1420 c 0
 117 1432 121 1438 128 1438 c 2
 163 1438 l 2
 178 1438 191 1433 205 1390 c 2
 392 825 l 1
 583 1390 l 2
 597 1432 611 1438 626 1438 c 2
 656 1438 l 2
 668 1438 674 1431 674 1416 c 0
 674 1408 672 1397 667 1383 c 2
 434 750 l 1
 667 67 l 2
 673 50 676 35 676 24 c 0
 676 9 670 0 659 0 c 2
 635 0 l 2
 620 0 604 4 590 47 c 2
 389 658 l 1
 167 47 l 2
 152 5 142 0 127 0 c 2
EndSplineSet
EndChar

StartChar: Y
Encoding: 89 89 51
Width: 622
Flags: W
LayerCount: 2
Fore
SplineSet
296 0 m 2
 281 0 273 10 273 53 c 2
 273 713 l 1
 59 1381 l 2
 52 1401 51 1409 51 1420 c 0
 51 1432 59 1438 73 1438 c 2
 92 1438 l 2
 106 1438 123 1429 132 1401 c 2
 313 814 l 1
 493 1401 l 2
 500 1425 515 1438 531 1438 c 2
 550 1438 l 2
 565 1438 571 1431 571 1418 c 0
 571 1407 571 1399 565 1381 c 2
 350 717 l 1
 350 53 l 2
 350 10 343 0 328 0 c 2
 296 0 l 2
EndSplineSet
EndChar

StartChar: Z
Encoding: 90 90 52
Width: 648
Flags: W
LayerCount: 2
Fore
SplineSet
110 0 m 2
 96 0 88 0 88 27 c 2
 88 30 l 2
 88 54 90 55 94 69 c 2
 465 1326 l 2
 468 1337 471 1348 471 1358 c 0
 471 1369 467 1378 459 1378 c 2
 114 1378 l 2
 99 1378 91 1378 91 1405 c 2
 91 1411 l 2
 91 1438 99 1438 114 1438 c 2
 532 1438 l 2
 546 1438 555 1438 555 1411 c 2
 555 1406 l 2
 555 1363 547 1340 543 1326 c 2
 185 102 l 2
 182 92 180 82 180 74 c 0
 180 66 181 60 187 60 c 2
 540 60 l 2
 553 60 562 60 562 33 c 2
 562 27 l 2
 562 0 553 0 540 0 c 2
 110 0 l 2
EndSplineSet
EndChar

StartChar: bracketleft
Encoding: 91 91 53
Width: 433
Flags: W
LayerCount: 2
Fore
SplineSet
130 -65 m 2
 114 -65 103 -31 103 12 c 2
 103 1440 l 2
 103 1483 114 1517 130 1517 c 2
 325 1517 l 2
 339 1517 347 1503 347 1460 c 2
 347 1401 l 2
 347 1358 339 1344 325 1344 c 2
 190 1344 l 2
 183 1344 181 1337 181 1317 c 2
 181 125 l 2
 181 105 183 98 190 98 c 2
 325 98 l 2
 339 98 347 84 347 41 c 2
 347 -8 l 2
 347 -51 339 -65 325 -65 c 2
 130 -65 l 2
EndSplineSet
EndChar

StartChar: backslash
Encoding: 92 92 54
Width: 456
Flags: W
LayerCount: 2
Fore
SplineSet
318 -205 m 2
 312 -205 304 -191 301 -170 c 2
 68 1612 l 2
 66 1629 69 1647 75 1647 c 2
 132 1647 l 2
 139 1647 145 1633 148 1612 c 2
 381 -170 l 2
 384 -187 379 -205 374 -205 c 2
 318 -205 l 2
EndSplineSet
EndChar

StartChar: bracketright
Encoding: 93 93 55
Width: 434
Flags: W
LayerCount: 2
Fore
SplineSet
111 -65 m 2
 96 -65 88 -51 88 -8 c 2
 88 51 l 2
 88 94 96 108 111 108 c 2
 244 108 l 2
 251 108 253 115 253 135 c 2
 253 1327 l 2
 253 1347 251 1354 244 1354 c 2
 111 1354 l 2
 96 1354 88 1368 88 1411 c 2
 88 1460 l 2
 88 1503 96 1517 111 1517 c 2
 306 1517 l 2
 320 1517 331 1483 331 1440 c 2
 331 12 l 2
 331 -31 320 -65 306 -65 c 2
 111 -65 l 2
EndSplineSet
EndChar

StartChar: grave
Encoding: 96 96 56
Width: 595
Flags: W
LayerCount: 2
Fore
SplineSet
453 1166 m 2
 439 1166 436 1188 433 1205 c 2
 371 1533 l 2
 369 1545 367 1559 367 1570 c 0
 367 1586 370 1598 377 1598 c 2
 433 1598 l 2
 449 1598 455 1586 459 1543 c 1
 479 1233 l 2
 480 1219 480 1207 480 1198 c 0
 480 1171 476 1166 466 1166 c 2
 453 1166 l 2
EndSplineSet
EndChar

StartChar: a
Encoding: 97 97 57
Width: 676
Flags: W
LayerCount: 2
Fore
SplineSet
274 43 m 0
 399 43 504 245 504 493 c 0
 504 507 504 551 499 551 c 0
 498 551 437 541 435 540 c 0
 235 500 156 383 157 251 c 0
 158 131 182 43 274 43 c 0
274 -21 m 0
 141 -21 78 92 78 238 c 0
 78 584 442 593 502 608 c 1
 502 668 l 2
 502 823 498 990 331 990 c 0
 223 990 176 904 145 811 c 0
 138 789 127 757 119 757 c 0
 117 757 116 758 113 759 c 2
 96 765 l 2
 91 767 82 785 82 802 c 0
 82 820 89 847 93 858 c 0
 131 966 192 1052 330 1052 c 0
 531 1052 581 929 581 631 c 2
 581 37 l 2
 581 2 575 -12 563 -12 c 2
 557 -12 l 2
 543 -12 537 12 534 52 c 0
 530 96 522 206 521 224 c 0
 520 245 518 252 515 252 c 0
 514 252 513 245 511 238 c 0
 464 62 371 -21 274 -21 c 0
EndSplineSet
EndChar

StartChar: b
Encoding: 98 98 58
Width: 662
Flags: W
LayerCount: 2
Fore
SplineSet
351 -21 m 0
 282 -21 210 43 170 207 c 0
 169 209 168 212 167 212 c 2
 167 212 166 210 165 201 c 0
 162 184 158 129 156 109 c 0
 146 18 140 0 125 0 c 2
 121 0 l 2
 107 0 103 10 103 53 c 2
 103 1371 l 2
 103 1414 111 1438 125 1438 c 2
 157 1438 l 2
 172 1438 180 1414 180 1371 c 2
 180 861 l 2
 180 854 181 853 181 853 c 2
 182 853 183 857 183 857 c 1
 220 989 292 1052 361 1052 c 0
 469 1052 576 912 576 504 c 0
 576 107 450 -21 351 -21 c 0
340 43 m 0
 426 43 499 198 499 504 c 0
 499 849 431 990 350 990 c 0
 267 990 180 784 180 504 c 0
 180 247 252 43 340 43 c 0
EndSplineSet
EndChar

StartChar: c
Encoding: 99 99 59
Width: 614
Flags: W
LayerCount: 2
Fore
SplineSet
339 -20 m 0
 228 -22 84 43 84 514 c 0
 84 991 227 1052 339 1052 c 0
 365 1052 412 1048 448 1034 c 1
 455 1023 l 1
 455 983 l 1
 448 973 l 1
 413 983 370 991 338 989 c 0
 256 984 162 943 162 514 c 0
 162 111 249 43 344 43 c 0
 373 43 414 50 448 62 c 1
 457 52 l 1
 457 13 l 1
 448 2 l 1
 417 -12 375 -19 339 -20 c 0
EndSplineSet
EndChar

StartChar: d
Encoding: 100 100 60
Width: 662
Flags: W
LayerCount: 2
Fore
SplineSet
323 41 m 0
 411 45 482 246 482 504 c 0
 482 786 405 981 323 990 c 0
 238 999 164 891 164 504 c 0
 164 141 228 37 323 41 c 0
492 203 m 0
 452 42 398 -21 311 -21 c 0
 211 -21 86 42 86 504 c 0
 86 955 193 1052 313 1052 c 0
 380 1052 441 990 478 860 c 1
 481 856 481 852 482 847 c 1
 482 1371 l 2
 482 1414 490 1438 506 1438 c 2
 537 1438 l 2
 551 1438 560 1414 560 1371 c 2
 560 67 l 2
 560 24 557 0 542 0 c 2
 537 0 l 2
 528 0 521 31 514 71 c 1
 508 112 505 162 498 202 c 0
 497 208 497 214 496 220 c 1
 495 214 493 209 492 203 c 0
EndSplineSet
EndChar

StartChar: e
Encoding: 101 101 61
Width: 634
Flags: W
LayerCount: 2
Fore
SplineSet
333 -21 m 0
 201 -21 84 106 84 504 c 0
 84 932 214 1052 326 1052 c 0
 471 1052 532 861 545 607 c 1
 545 565 l 2
 545 530 539 487 500 487 c 2
 169 487 l 2
 166 487 164 485 164 477 c 0
 165 317 197 43 338 43 c 0
 458 43 473 191 479 275 c 0
 480 282 482 293 484 293 c 2
 523 293 l 2
 528 293 533 290 533 280 c 2
 533 247 l 2
 533 111 467 -21 333 -21 c 0
168 539 m 2
 480 539 l 1
 480 541 l 1
 472 802 434 990 325 990 c 0
 253 990 186 906 166 602 c 0
 166 598 166 539 168 539 c 2
EndSplineSet
EndChar

StartChar: f
Encoding: 102 102 62
Width: 506
Flags: W
LayerCount: 2
Fore
SplineSet
193 0 m 2
 179 0 167 34 167 77 c 2
 167 821 l 2
 167 841 167 858 159 858 c 2
 109 858 l 2
 94 858 85 867 85 910 c 2
 85 945 l 2
 85 988 94 1006 109 1006 c 2
 159 1006 l 2
 167 1006 167 1019 167 1041 c 0
 167 1381 241 1475 314 1475 c 0
 353 1475 395 1441 401 1438 c 0
 411 1431 417 1403 417 1375 c 2
 417 1331 l 2
 417 1294 415 1280 404 1280 c 0
 402 1280 361 1310 338 1310 c 0
 262 1310 244 1229 244 1090 c 2
 244 1012 l 2
 244 1009 246 1006 248 1006 c 2
 387 1006 l 2
 401 1006 410 994 410 951 c 2
 410 910 l 2
 410 867 401 858 387 858 c 2
 253 858 l 2
 246 858 244 841 244 821 c 2
 244 77 l 2
 244 34 233 0 219 0 c 2
 193 0 l 2
EndSplineSet
EndChar

StartChar: g
Encoding: 103 103 63
Width: 569
Flags: W
LayerCount: 2
Fore
SplineSet
313 413 m 0
 438 413 436 561 436 698 c 0
 436 827 413 990 290 990 c 0
 172 990 165 824 165 709 c 0
 165 553 194 413 313 413 c 0
307 -282 m 0
 158 -282 98 -209 98 -113 c 0
 98 -57 130 42 170 115 c 0
 172 119 174 124 174 128 c 0
 174 133 171 135 165 138 c 0
 117 162 101 205 101 242 c 0
 101 337 127 363 160 407 c 0
 164 412 165 417 165 422 c 0
 165 427 164 432 161 435 c 0
 109 508 92 614 92 705 c 0
 92 889 140 1052 302 1052 c 0
 321 1052 340 1046 355 1041 c 0
 361 1039 365 1043 367 1060 c 2
 393 1300 l 2
 397 1339 405 1342 420 1342 c 2
 452 1342 l 2
 463 1342 471 1328 465 1303 c 2
 402 1029 l 2
 401 1025 401 1022 401 1019 c 0
 401 1010 404 1003 409 999 c 0
 471 947 507 823 507 705 c 0
 507 512 471 354 315 354 c 0
 275 354 240 364 214 381 c 1
 186 350 158 316 158 252 c 0
 158 213 186 170 248 170 c 2
 358 170 l 2
 499 170 544 83 544 -23 c 0
 544 -203 470 -282 307 -282 c 0
295 -222 m 0
 436 -222 481 -158 481 -25 c 0
 481 78 427 111 352 111 c 2
 249 111 l 2
 218 111 169 9 169 -97 c 0
 169 -168 193 -222 295 -222 c 0
EndSplineSet
EndChar

StartChar: h
Encoding: 104 104 64
Width: 617
Flags: W
LayerCount: 2
Fore
SplineSet
120 0 m 2
 106 0 98 9 98 52 c 2
 98 1382 l 2
 98 1425 106 1438 120 1438 c 2
 152 1438 l 2
 167 1438 175 1425 175 1382 c 2
 175 854 l 2
 175 850 176 849 177 849 c 0
 179 849 180 850 181 853 c 0
 225 994 294 1052 355 1052 c 0
 470 1052 522 968 522 632 c 2
 522 52 l 2
 522 9 512 0 499 0 c 2
 467 0 l 2
 452 0 445 9 445 52 c 2
 445 666 l 2
 445 891 422 990 350 990 c 0
 262 990 175 779 175 646 c 2
 175 52 l 2
 175 9 168 0 153 0 c 2
 120 0 l 2
EndSplineSet
EndChar

StartChar: i
Encoding: 105 105 65
Width: 281
Flags: W
LayerCount: 2
Fore
SplineSet
125 1179 m 2
 110 1179 102 1183 102 1226 c 2
 102 1294 l 2
 102 1337 110 1341 125 1341 c 2
 157 1341 l 2
 172 1341 179 1337 179 1294 c 2
 179 1226 l 2
 179 1183 172 1179 157 1179 c 2
 125 1179 l 2
125 0 m 2
 110 0 102 4 102 47 c 2
 102 959 l 2
 102 1002 110 1006 125 1006 c 2
 157 1006 l 2
 172 1006 179 1002 179 959 c 2
 179 47 l 2
 179 4 172 0 157 0 c 2
 125 0 l 2
EndSplineSet
EndChar

StartChar: j
Encoding: 106 106 66
Width: 355
Flags: W
LayerCount: 2
Fore
SplineSet
198 1179 m 2
 183 1179 175 1183 175 1226 c 2
 175 1294 l 2
 175 1337 183 1341 198 1341 c 2
 230 1341 l 2
 245 1341 252 1337 252 1294 c 2
 252 1226 l 2
 252 1183 245 1179 230 1179 c 2
 198 1179 l 2
74 -291 m 2
 59 -291 54 -282 54 -266 c 2
 54 -234 l 2
 54 -221 57 -212 74 -212 c 2
 112 -212 l 2
 169 -212 175 -167 175 19 c 2
 175 959 l 2
 175 1002 184 1006 198 1006 c 2
 229 1006 l 2
 245 1006 252 1002 252 959 c 2
 252 6 l 2
 252 -259 219 -291 113 -291 c 2
 74 -291 l 2
EndSplineSet
EndChar

StartChar: k
Encoding: 107 107 67
Width: 674
Flags: W
LayerCount: 2
Fore
SplineSet
179 67 m 2
 179 24 171 0 156 0 c 2
 124 0 l 2
 110 0 102 24 102 67 c 2
 102 1371 l 2
 102 1414 110 1438 124 1438 c 2
 156 1438 l 2
 171 1438 179 1414 179 1371 c 2
 179 481 l 2
 179 475 180 472 182 472 c 1
 182 472 183 472 184 474 c 2
 439 939 l 1
 460 975 477 1006 491 1006 c 2
 558 1006 l 2
 564 1006 568 999 568 989 c 0
 568 976 563 958 552 939 c 2
 347 564 l 2
 345 561 344 559 344 556 c 0
 344 552 347 549 347 548 c 2
 574 67 l 2
 582 50 586 34 586 22 c 0
 586 9 581 0 574 0 c 2
 516 0 l 2
 503 0 488 31 472 67 c 2
 288 465 l 2
 287 468 286 473 282 473 c 0
 281 473 280 472 277 468 c 0
 254 429 184 312 183 310 c 0
 181 305 179 299 179 288 c 2
 179 67 l 2
EndSplineSet
EndChar

StartChar: l
Encoding: 108 108 68
Width: 281
Flags: W
LayerCount: 2
Fore
SplineSet
124 0 m 2
 110 0 102 24 102 67 c 2
 102 1371 l 2
 102 1414 110 1438 124 1438 c 2
 156 1438 l 2
 171 1438 179 1414 179 1371 c 2
 179 67 l 2
 179 24 171 0 156 0 c 2
 124 0 l 2
EndSplineSet
EndChar

StartChar: m
Encoding: 109 109 69
Width: 962
Flags: W
LayerCount: 2
Fore
SplineSet
123 0 m 2
 108 0 99 9 99 52 c 2
 99 939 l 2
 99 982 105 1006 120 1006 c 2
 126 1006 l 2
 142 1006 148 1002 153 952 c 1
 162 824 l 2
 163 816 164 811 168 811 c 0
 170 811 172 819 173 826 c 0
 209 997 282 1052 347 1052 c 0
 429 1052 478 1005 514 826 c 0
 515 823 515 821 516 821 c 0
 517 821 518 822 519 826 c 0
 555 997 628 1052 693 1052 c 0
 798 1052 870 978 870 642 c 2
 870 52 l 2
 870 9 861 0 847 0 c 2
 814 0 l 2
 799 0 791 9 791 52 c 2
 791 696 l 2
 791 921 755 989 692 989 c 0
 596 989 524 789 524 656 c 2
 524 52 l 2
 524 9 515 0 501 0 c 2
 468 0 l 2
 453 0 445 9 445 52 c 2
 445 696 l 2
 445 921 409 989 346 989 c 0
 250 989 178 789 178 656 c 2
 178 52 l 2
 178 9 169 0 155 0 c 2
 123 0 l 2
EndSplineSet
EndChar

StartChar: n
Encoding: 110 110 70
Width: 618
Flags: W
LayerCount: 2
Fore
SplineSet
122 0 m 2
 107 0 98 9 98 52 c 2
 98 939 l 2
 98 982 104 1006 119 1006 c 2
 125 1006 l 2
 141 1006 147 1002 152 952 c 1
 161 824 l 2
 162 816 163 811 167 811 c 0
 169 811 171 819 172 826 c 0
 208 997 281 1052 346 1052 c 0
 451 1052 523 978 523 642 c 2
 523 52 l 2
 523 9 514 0 500 0 c 2
 467 0 l 2
 452 0 444 9 444 52 c 2
 444 696 l 2
 444 921 408 989 345 989 c 0
 249 989 177 789 177 656 c 2
 177 52 l 2
 177 9 168 0 154 0 c 2
 122 0 l 2
EndSplineSet
EndChar

StartChar: o
Encoding: 111 111 71
Width: 646
Flags: W
LayerCount: 2
Fore
SplineSet
324 -20 m 0
 212 -20 85 76 85 514 c 0
 85 962 202 1052 324 1052 c 0
 444 1052 559 962 559 514 c 0
 559 77 434 -20 324 -20 c 0
323 42 m 0
 409 42 482 123 482 514 c 0
 482 928 403 990 323 990 c 0
 240 990 163 926 163 514 c 0
 163 126 235 42 323 42 c 0
EndSplineSet
EndChar

StartChar: p
Encoding: 112 112 72
Width: 659
Flags: W
LayerCount: 2
Fore
SplineSet
337 43 m 0
 417 43 495 143 495 507 c 0
 495 798 423 990 337 990 c 0
 249 990 177 765 177 507 c 0
 177 225 254 43 337 43 c 0
122 -427 m 2
 107 -427 99 -408 99 -365 c 2
 99 954 l 2
 99 997 102 1011 117 1011 c 2
 122 1011 l 2
 132 1011 140 1000 148 927 c 0
 153 889 158 844 158 811 c 0
 158 805 161 800 162 800 c 0
 164 800 165 802 167 806 c 1
 206 968 281 1052 348 1052 c 0
 459 1052 573 904 573 507 c 0
 573 99 457 -21 342 -21 c 0
 276 -21 217 41 181 170 c 0
 180 173 178 175 178 175 c 2
 177 175 177 173 177 167 c 2
 177 -365 l 2
 177 -408 168 -427 154 -427 c 2
 122 -427 l 2
EndSplineSet
EndChar

StartChar: q
Encoding: 113 113 73
Width: 659
Flags: HWO
LayerCount: 2
Fore
SplineSet
335 43 m 0
 255 43 177 143 177 507 c 0
 177 798 249 990 335 990 c 0
 423 990 495 765 495 507 c 0
 495 225 418 43 335 43 c 0
550 -427 m 2
 565 -427 573 -408 573 -365 c 2
 573 954 l 2
 573 997 570 1011 555 1011 c 2
 550 1011 l 2
 540 1011 532 1000 524 927 c 0
 519 889 514 844 514 811 c 0
 514 805 511 800 510 800 c 0
 508 800 507 802 505 806 c 1
 466 968 391 1052 324 1052 c 0
 213 1052 99 904 99 507 c 0
 99 99 215 -21 330 -21 c 0
 396 -21 455 41 491 170 c 0
 492 173 494 175 494 175 c 2
 495 175 495 173 495 167 c 2
 495 -365 l 2
 495 -408 504 -427 518 -427 c 2
 550 -427 l 2
EndSplineSet
EndChar

StartChar: r
Encoding: 114 114 74
Width: 439
Flags: W
LayerCount: 2
Fore
SplineSet
122 0 m 2
 107 0 98 24 98 67 c 2
 98 929 l 2
 98 972 104 1006 119 1006 c 2
 125 1006 l 2
 141 1006 147 992 152 942 c 2
 161 832 l 2
 162 823 163 811 167 811 c 0
 169 811 171 826 173 833 c 0
 199 936 254 1052 318 1052 c 2
 333 1052 l 2
 349 1052 357 1028 357 985 c 2
 357 926 l 2
 357 883 349 863 333 863 c 2
 304 863 l 2
 237 863 177 739 177 606 c 2
 177 67 l 2
 177 24 168 0 154 0 c 2
 122 0 l 2
EndSplineSet
EndChar

StartChar: s
Encoding: 115 115 75
Width: 644
Flags: W
LayerCount: 2
Fore
SplineSet
312 -21 m 0
 246 -21 170 -3 124 20 c 0
 114 25 96 31 96 59 c 2
 96 68 l 2
 96 108 127 86 131 84 c 0
 176 63 232 43 311 43 c 0
 428 43 487 137 487 251 c 0
 487 347 480 446 311 496 c 0
 149 544 94 614 94 782 c 0
 94 1002 258 1052 337 1052 c 0
 404 1052 466 1035 504 1005 c 0
 513 998 516 990 516 979 c 2
 516 964 l 2
 516 938 501 933 488 943 c 0
 461 965 399 990 333 990 c 0
 210 990 170 886 170 782 c 0
 170 656 177 605 329 557 c 0
 496 504 554 430 554 260 c 0
 554 64 441 -21 312 -21 c 0
EndSplineSet
EndChar

StartChar: t
Encoding: 116 116 76
Width: 487
Flags: W
LayerCount: 2
Fore
SplineSet
421 -6 m 2
 421 -22 412 -27 394 -27 c 2
 316 -27 l 2
 211 -27 157 46 157 273 c 2
 157 921 l 2
 157 936 153 937 147 937 c 2
 79 937 l 2
 64 937 56 938 56 969 c 2
 56 973 l 2
 56 1005 64 1006 79 1006 c 2
 147 1006 l 2
 153 1006 157 1013 157 1033 c 2
 171 1428 l 2
 172 1470 179 1475 193 1475 c 2
 211 1475 l 2
 226 1475 234 1471 234 1428 c 2
 234 1033 l 2
 234 1013 236 1006 244 1006 c 2
 375 1006 l 2
 391 1006 398 1005 398 973 c 2
 398 969 l 2
 398 938 391 937 375 937 c 2
 244 937 l 2
 236 937 234 936 234 921 c 2
 234 277 l 2
 234 67 275 43 328 43 c 2
 392 43 l 2
 405 43 421 41 421 29 c 2
 421 -6 l 2
EndSplineSet
EndChar

StartChar: u
Encoding: 117 117 77
Width: 618
Flags: W
LayerCount: 2
Fore
SplineSet
275 -21 m 0
 170 -21 98 28 98 364 c 2
 98 954 l 2
 98 997 107 1006 121 1006 c 2
 154 1006 l 2
 169 1006 177 997 177 954 c 2
 177 310 l 2
 177 85 213 42 276 42 c 0
 372 42 444 217 444 350 c 2
 444 954 l 2
 444 997 453 1006 467 1006 c 2
 499 1006 l 2
 514 1006 523 997 523 954 c 2
 523 67 l 2
 523 24 517 0 502 0 c 2
 496 0 l 2
 480 0 474 4 469 54 c 1
 460 182 l 2
 459 190 458 195 454 195 c 0
 452 195 450 187 449 180 c 0
 413 9 340 -21 275 -21 c 0
EndSplineSet
EndChar

StartChar: v
Encoding: 118 118 78
Width: 618
Flags: W
LayerCount: 2
Fore
SplineSet
291 1 m 2
 278 1 268 27 260 67 c 2
 83 939 l 2
 80 954 79 967 79 977 c 0
 79 996 83 1006 93 1006 c 2
 134 1006 l 2
 150 1006 156 982 164 939 c 2
 309 175 l 2
 310 169 311 166 313 166 c 0
 314 166 315 169 316 175 c 2
 448 939 l 2
 456 985 466 1006 480 1006 c 2
 522 1006 l 2
 531 1006 535 998 535 982 c 0
 535 971 533 957 529 939 c 2
 365 67 l 2
 357 27 343 1 329 1 c 2
 291 1 l 2
EndSplineSet
EndChar

StartChar: w
Encoding: 119 119 79
Width: 937
Flags: W
LayerCount: 2
Fore
SplineSet
275 0 m 2
 261 0 249 27 242 67 c 2
 84 939 l 2
 81 954 80 967 80 977 c 0
 80 996 84 1006 94 1006 c 2
 135 1006 l 2
 151 1006 157 983 165 939 c 2
 292 183 l 1
 295 176 296 173 297 173 c 0
 299 173 300 177 301 183 c 2
 422 939 l 2
 430 986 439 1006 453 1006 c 2
 485 1006 l 2
 497 1006 503 980 510 939 c 2
 645 183 l 2
 646 177 647 175 648 175 c 0
 652 175 653 180 653 183 c 2
 767 939 l 2
 774 986 784 1006 800 1006 c 2
 842 1006 l 2
 850 1006 854 998 854 982 c 0
 854 971 852 957 848 939 c 1
 704 67 l 2
 696 23 681 0 668 0 c 2
 627 0 l 2
 614 0 601 26 594 67 c 2
 471 781 l 2
 470 787 469 788 468 788 c 0
 467 788 464 784 463 781 c 2
 350 67 l 2
 343 23 328 0 315 0 c 2
 275 0 l 2
EndSplineSet
EndChar

StartChar: x
Encoding: 120 120 80
Width: 674
Flags: W
LayerCount: 2
Fore
SplineSet
99 0 m 2
 93 0 90 13 90 26 c 0
 90 33 91 41 93 46 c 0
 157 193 226 349 287 492 c 0
 288 494 288 495 288 499 c 0
 288 502 288 506 287 511 c 1
 206 702 127 892 100 958 c 0
 98 963 96 971 96 978 c 0
 96 992 101 1006 106 1006 c 2
 155 1006 l 2
 171 1006 181 985 193 956 c 0
 217 899 265 787 335 622 c 0
 336 620 337 618 338 618 c 0
 340 618 341 619 343 622 c 0
 411 777 466 903 488 958 c 0
 500 987 509 1006 524 1006 c 2
 571 1006 l 2
 577 1006 581 994 581 981 c 0
 581 973 580 965 577 960 c 0
 528 845 458 678 390 515 c 0
 389 513 388 511 388 507 c 0
 388 504 389 499 390 493 c 1
 444 368 505 219 579 48 c 0
 581 42 582 35 582 28 c 0
 582 14 579 0 573 0 c 2
 526 0 l 2
 510 0 493 21 481 50 c 0
 460 98 407 228 344 375 c 0
 342 378 341 381 339 381 c 0
 337 381 335 380 330 375 c 1
 269 229 213 103 189 47 c 0
 176 18 158 0 142 0 c 2
 99 0 l 2
EndSplineSet
EndChar

StartChar: y
Encoding: 121 121 81
Width: 644
Flags: W
LayerCount: 2
Fore
SplineSet
265 -269 m 0
 219 -274 164 -247 156 -221 c 0
 153 -210 157 -193 159 -184 c 0
 164 -160 170 -152 175 -152 c 0
 177 -152 216 -195 245 -195 c 0
 291 -195 311 -75 311 2 c 0
 311 33 302 72 292 110 c 2
 82 947 l 2
 81 954 80 962 80 969 c 0
 80 992 87 1006 96 1006 c 2
 130 1006 l 2
 146 1006 155 992 163 950 c 1
 344 146 l 2
 346 140 347 137 349 137 c 0
 351 137 352 141 353 148 c 2
 481 947 l 2
 487 990 496 1006 511 1006 c 2
 543 1006 l 2
 553 1006 559 990 559 964 c 0
 559 957 558 950 557 943 c 2
 390 8 l 2
 358 -170 338 -261 265 -269 c 0
EndSplineSet
EndChar

StartChar: z
Encoding: 122 122 82
Width: 590
Flags: W
LayerCount: 2
Fore
SplineSet
116 0 m 2
 109 0 94 17 94 37 c 2
 94 121 l 2
 94 144 98 170 104 181 c 1
 394 848 l 1
 108 848 l 2
 100 848 95 865 95 885 c 2
 95 969 l 2
 95 989 100 1006 108 1006 c 2
 461 1006 l 2
 469 1006 484 989 484 969 c 2
 484 868 l 2
 484 845 479 821 474 807 c 2
 198 158 l 1
 485 158 l 2
 491 158 498 141 498 121 c 2
 498 37 l 2
 498 17 491 0 485 0 c 2
 116 0 l 2
EndSplineSet
EndChar

StartChar: braceleft
Encoding: 123 123 83
Width: 499
Flags: W
LayerCount: 2
Fore
SplineSet
290 -123 m 2
 128 -123 207 478 108 563 c 0
 90 579 82 608 82 664 c 2
 82 756 l 2
 82 812 90 841 108 857 c 0
 207 942 128 1543 290 1543 c 2
 382 1543 l 2
 397 1543 409 1508 409 1466 c 2
 409 1356 l 2
 409 1304 399 1273 381 1262 c 0
 294 1206 370 848 288 725 c 0
 283 718 283 702 288 695 c 0
 370 572 294 214 381 158 c 0
 399 147 409 116 409 64 c 2
 409 -46 l 2
 409 -88 397 -123 382 -123 c 2
 290 -123 l 2
EndSplineSet
EndChar

StartChar: bar
Encoding: 124 124 84
Width: 278
Flags: W
LayerCount: 2
Fore
SplineSet
131 -150 m 2
 115 -150 103 -136 103 -93 c 2
 103 1498 l 2
 103 1541 115 1555 131 1555 c 2
 148 1555 l 2
 163 1555 174 1541 174 1498 c 2
 174 -93 l 2
 174 -136 163 -150 148 -150 c 2
 131 -150 l 2
EndSplineSet
EndChar

StartChar: braceright
Encoding: 125 125 85
Width: 503
Flags: W
LayerCount: 2
Fore
SplineSet
118 -123 m 2
 104 -123 92 -88 92 -46 c 2
 92 64 l 2
 92 116 101 147 118 158 c 0
 205 214 131 572 213 695 c 0
 217 702 217 718 213 725 c 0
 131 848 205 1206 118 1262 c 0
 101 1273 92 1304 92 1356 c 2
 92 1466 l 2
 92 1508 104 1543 118 1543 c 2
 211 1543 l 2
 373 1543 292 942 391 857 c 0
 410 841 419 812 419 756 c 2
 419 664 l 2
 419 608 410 579 391 563 c 0
 292 478 373 -123 211 -123 c 2
 118 -123 l 2
EndSplineSet
EndChar

StartChar: Aring
Encoding: 197 197 86
Width: 672
Flags: W
LayerCount: 2
Fore
SplineSet
342 1452 m 0
 369 1452 392 1497 392 1589 c 0
 392 1688 367 1726 342 1726 c 0
 316 1726 291 1688 291 1589 c 0
 291 1498 314 1452 342 1452 c 0
227 420 m 2
 485 420 l 2
 487 420 487 423 487 425 c 0
 487 427 487 429 485 430 c 1
 358 1278 l 2
 357 1279 357 1280 357 1280 c 2
 356 1280 356 1278 356 1278 c 1
 220 436 l 2
 219 431 219 428 219 427 c 0
 219 425 222 420 227 420 c 2
148 53 m 2
 140 10 131 0 115 0 c 2
 80 0 l 2
 71 0 65 11 65 32 c 0
 65 42 63 39 66 53 c 2
 305 1380 l 1
 306 1383 l 1
 279 1412 255 1475 255 1589 c 0
 255 1757 301 1814 342 1814 c 0
 382 1814 428 1757 428 1589 c 0
 428 1509 416 1453 399 1418 c 1
 403 1409 407 1397 409 1380 c 2
 629 53 l 2
 631 39 636 41 636 31 c 0
 636 11 631 0 621 0 c 2
 586 0 l 2
 572 0 554 9 548 53 c 2
 504 355 l 1
 501 360 l 1
 202 360 l 1
 199 354 l 1
 148 53 l 2
EndSplineSet
EndChar

StartChar: Eacute
Encoding: 201 201 87
Width: 598
Flags: W
LayerCount: 2
Fore
SplineSet
314 1533 m 2
 304 1533 299 1538 299 1565 c 0
 299 1574 299 1586 300 1600 c 2
 321 1910 l 2
 324 1953 331 1965 347 1965 c 2
 402 1965 l 2
 409 1965 412 1953 412 1937 c 0
 412 1926 410 1912 408 1900 c 2
 346 1572 l 2
 343 1555 340 1533 326 1533 c 2
 314 1533 l 2
EndSplineSet
EndChar

StartChar: aring
Encoding: 229 229 88
Width: 625
Flags: W
LayerCount: 2
Fore
SplineSet
304 1175 m 0
 266 1175 217 1235 217 1399 c 0
 217 1567 263 1624 304 1624 c 0
 344 1624 390 1567 390 1399 c 0
 390 1236 340 1175 304 1175 c 0
304 1262 m 0
 331 1262 354 1307 354 1399 c 0
 354 1498 329 1536 304 1536 c 0
 278 1536 253 1498 253 1399 c 0
 253 1308 276 1262 304 1262 c 0
274 43 m 0
 399 43 504 245 504 493 c 0
 504 507 504 551 499 551 c 0
 498 551 437 541 435 540 c 0
 235 500 156 383 157 251 c 0
 158 131 182 43 274 43 c 0
511 238 m 0
 464 62 371 -21 274 -21 c 0
 141 -21 78 92 78 238 c 0
 78 584 442 593 502 608 c 1
 502 668 l 2
 502 823 498 990 331 990 c 0
 223 990 176 904 145 811 c 0
 138 789 127 757 119 757 c 0
 117 757 116 758 113 759 c 2
 96 765 l 2
 91 767 82 785 82 802 c 0
 82 820 89 847 93 858 c 0
 131 966 192 1052 330 1052 c 0
 531 1052 581 929 581 631 c 2
 581 37 l 2
 581 2 575 -12 563 -12 c 2
 557 -12 l 2
 543 -12 537 12 534 52 c 0
 530 96 522 206 521 224 c 0
 520 245 518 252 515 252 c 0
 514 252 513 245 511 238 c 0
EndSplineSet
EndChar

StartChar: ccedilla
Encoding: 231 231 89
Width: 551
Flags: W
LayerCount: 2
Fore
SplineSet
339 -20 m 0
 228 -22 84 43 84 514 c 0
 84 991 227 1052 339 1052 c 0
 365 1052 412 1048 448 1034 c 1
 455 1023 l 1
 455 983 l 1
 448 973 l 1
 413 983 370 991 338 989 c 0
 256 984 162 943 162 514 c 0
 162 111 249 43 344 43 c 0
 373 43 414 50 448 62 c 1
 457 52 l 1
 457 13 l 1
 448 2 l 1
 417 -12 375 -19 339 -20 c 0
286 -517 m 0
 247 -517 217 -447 217 -339 c 0
 217 -321 218 -302 220 -283 c 0
 221 -264 227 -248 234 -248 c 2
 256 -248 l 2
 263 -248 268 -264 266 -284 c 0
 264 -302 263 -319 263 -336 c 0
 263 -389 272 -432 290 -432 c 0
 305 -432 314 -392 314 -282 c 0
 314 -206 304 -129 286 -129 c 2
 273 -129 l 1
 273 -129 268 -130 268 -119 c 2
 268 -48 l 2
 268 -38 269 -31 273 -31 c 2
 298 -31 l 2
 335 -31 361 -134 361 -245 c 0
 361 -423 335 -517 286 -517 c 0
EndSplineSet
EndChar

StartChar: eacute
Encoding: 233 233 90
Width: 655
Flags: W
LayerCount: 2
Fore
SplineSet
287 1166 m 2
 277 1166 272 1171 272 1198 c 0
 272 1207 272 1219 273 1233 c 2
 294 1543 l 2
 297 1586 304 1598 320 1598 c 2
 375 1598 l 2
 382 1598 385 1586 385 1570 c 0
 385 1559 383 1545 381 1533 c 2
 319 1205 l 2
 316 1188 313 1166 299 1166 c 2
 287 1166 l 2
333 -21 m 0
 201 -21 84 106 84 504 c 0
 84 932 214 1052 326 1052 c 0
 471 1052 532 861 545 607 c 1
 545 565 l 2
 545 530 539 487 500 487 c 2
 169 487 l 2
 166 487 164 485 164 477 c 0
 165 317 197 43 338 43 c 0
 458 43 473 191 479 275 c 0
 480 282 482 293 484 293 c 2
 523 293 l 2
 528 293 533 290 533 280 c 2
 533 247 l 2
 533 111 467 -21 333 -21 c 0
168 539 m 2
 480 539 l 1
 480 541 l 1
 472 802 434 990 325 990 c 0
 253 990 186 906 166 602 c 0
 166 598 166 539 168 539 c 2
EndSplineSet
EndChar

StartChar: acute
Encoding: 180 180 91
Width: 595
Flags: W
LayerCount: 2
Fore
SplineSet
382 1166 m 2
 372 1166 367 1171 367 1198 c 0
 367 1207 367 1219 368 1233 c 2
 389 1543 l 2
 392 1586 399 1598 415 1598 c 2
 470 1598 l 2
 477 1598 480 1586 480 1570 c 0
 480 1559 478 1545 476 1533 c 2
 414 1205 l 2
 411 1188 408 1166 394 1166 c 2
 382 1166 l 2
EndSplineSet
EndChar

StartChar: dieresis
Encoding: 168 168 92
Width: 242
Flags: W
LayerCount: 2
Fore
SplineSet
304 0 m 2
 290 0 279 34 279 77 c 2
 279 173 l 2
 279 216 290 250 304 250 c 2
 347 250 l 2
 362 250 373 216 373 173 c 2
 373 77 l 2
 373 34 362 0 347 0 c 2
 304 0 l 2
100 0 m 2
 85 0 73 34 73 77 c 2
 73 173 l 2
 73 216 85 250 100 250 c 2
 143 250 l 2
 158 250 170 216 170 173 c 2
 170 77 l 2
 170 34 158 0 143 0 c 2
 100 0 l 2
EndSplineSet
EndChar

StartChar: Oslash
Encoding: 216 216 93
Width: 794
Flags: W
LayerCount: 2
Fore
SplineSet
431 1392 m 0
 263 1392 170 1252 170 724 c 0
 170 351 208 178 277 101 c 1
 459 1391 l 1
 450 1392 441 1392 431 1392 c 0
431 43 m 0
 597 43 693 114 693 724 c 0
 693 1174 631 1335 515 1378 c 1
 329 62 l 1
 359 47 393 43 431 43 c 0
302 -131 m 2
 299 -151 293 -164 288 -164 c 2
 250 -164 l 2
 246 -164 241 -146 244 -131 c 2
 265 18 l 1
 151 89 91 277 91 724 c 0
 91 1306 210 1455 431 1455 c 0
 444 1455 456 1455 468 1454 c 1
 496 1651 l 2
 499 1671 505 1684 512 1684 c 2
 548 1684 l 2
 553 1684 557 1666 554 1651 c 2
 525 1444 l 1
 688 1403 772 1227 772 724 c 0
 772 85 655 -21 431 -21 c 0
 390 -21 353 -17 319 -7 c 1
 302 -131 l 2
EndSplineSet
EndChar

StartChar: OE
Encoding: 338 338 94
Width: 1341
Flags: W
LayerCount: 2
Fore
SplineSet
536 -1 m 0
 355 -1 86 70 86 721 c 0
 86 1291 328 1438 509 1438 c 2
 1194 1438 l 2
 1208 1438 1220 1403 1220 1361 c 2
 1220 1132 l 2
 1220 1089 1209 1055 1194 1055 c 2
 888 1055 l 2
 881 1055 876 1038 876 1018 c 2
 876 918 l 2
 876 898 881 881 888 881 c 2
 1128 881 l 2
 1144 881 1156 847 1156 804 c 2
 1156 655 l 2
 1156 612 1144 578 1128 578 c 2
 888 578 l 2
 881 578 876 561 876 541 c 2
 876 414 l 2
 876 394 881 377 888 377 c 2
 1220 377 l 2
 1234 377 1246 343 1246 300 c 2
 1246 77 l 2
 1246 34 1234 0 1220 0 c 0
 539 0 561 -1 536 -1 c 0
522 376 m 2
 595 376 l 2
 601 376 607 393 607 413 c 2
 607 1028 l 2
 607 1048 601 1065 595 1065 c 2
 522 1065 l 2
 434 1065 378 988 378 721 c 0
 378 454 434 376 522 376 c 2
EndSplineSet
EndChar

StartChar: quoteleft
Encoding: 8216 8216 95
Width: 296
Flags: W
LayerCount: 2
Fore
SplineSet
115 911 m 2
 99 911 88 945 88 988 c 2
 88 1133 l 2
 88 1370 133 1506 180 1529 c 0
 192 1535 203 1520 203 1484 c 2
 203 1474 l 2
 203 1420 197 1426 182 1399 c 0
 159 1356 147 1279 147 1255 c 0
 147 1239 148 1228 153 1228 c 2
 182 1228 l 2
 195 1228 203 1216 203 1178 c 2
 203 975 l 2
 203 932 196 911 182 911 c 2
 115 911 l 2
EndSplineSet
EndChar

StartChar: quoteright
Encoding: 8217 8217 96
Width: 290
Flags: W
LayerCount: 2
Fore
SplineSet
114 917 m 0
 102 911 92 926 92 962 c 2
 92 972 l 2
 92 1026 98 1020 113 1047 c 0
 136 1090 147 1167 147 1191 c 0
 147 1207 147 1218 141 1218 c 2
 113 1218 l 2
 100 1218 92 1230 92 1268 c 2
 92 1471 l 2
 92 1514 98 1535 113 1535 c 2
 180 1535 l 2
 195 1535 207 1501 207 1458 c 2
 207 1313 l 2
 207 1076 162 940 114 917 c 0
EndSplineSet
EndChar

StartChar: fraction
Encoding: 8260 8260 97
Width: 501
Flags: W
LayerCount: 2
Fore
SplineSet
76 -205 m 2
 71 -205 66 -187 69 -172 c 2
 369 1614 l 2
 372 1634 380 1647 388 1647 c 2
 431 1647 l 2
 437 1647 441 1629 438 1614 c 2
 138 -172 l 2
 135 -192 127 -205 121 -205 c 2
 76 -205 l 2
EndSplineSet
EndChar

StartChar: Ecircumflex
Encoding: 202 202 98
Width: 598
Flags: W
LayerCount: 2
Fore
SplineSet
192 1508 m 2
 186 1508 182 1522 182 1538 c 0
 182 1545 183 1554 185 1560 c 2
 242 1715 l 2
 253 1747 271 1767 286 1767 c 2
 316 1767 l 2
 332 1767 350 1747 361 1715 c 2
 416 1560 l 2
 419 1554 421 1545 421 1538 c 0
 421 1522 415 1508 410 1508 c 2
 399 1508 l 2
 382 1508 363 1522 350 1546 c 2
 312 1614 l 2
 309 1620 305 1622 302 1622 c 0
 297 1622 294 1620 291 1614 c 2
 253 1546 l 2
 240 1522 219 1508 204 1508 c 2
 192 1508 l 2
EndSplineSet
EndChar

StartChar: Edieresis
Encoding: 203 203 99
Width: 598
Flags: W
LayerCount: 2
Fore
SplineSet
375 1535 m 2
 361 1535 350 1569 350 1612 c 2
 350 1708 l 2
 350 1751 361 1785 375 1785 c 2
 418 1785 l 2
 433 1785 444 1751 444 1708 c 2
 444 1612 l 2
 444 1569 433 1535 418 1535 c 2
 375 1535 l 2
171 1535 m 2
 156 1535 144 1569 144 1612 c 2
 144 1708 l 2
 144 1751 156 1785 171 1785 c 2
 214 1785 l 2
 229 1785 241 1751 241 1708 c 2
 241 1612 l 2
 241 1569 229 1535 214 1535 c 2
 171 1535 l 2
EndSplineSet
EndChar

StartChar: circumflex
Encoding: 710 710 100
Width: 291
Flags: W
LayerCount: 2
Fore
SplineSet
34 1217 m 2
 28 1217 24 1231 24 1247 c 0
 24 1254 25 1263 27 1269 c 2
 84 1424 l 2
 95 1456 113 1476 128 1476 c 2
 158 1476 l 2
 174 1476 192 1456 203 1424 c 2
 258 1269 l 2
 261 1263 263 1254 263 1247 c 0
 263 1231 257 1217 252 1217 c 2
 241 1217 l 2
 224 1217 205 1231 192 1255 c 2
 154 1323 l 2
 151 1329 147 1331 144 1331 c 0
 139 1331 136 1329 133 1323 c 2
 95 1255 l 2
 82 1231 61 1217 46 1217 c 2
 34 1217 l 2
EndSplineSet
EndChar

StartChar: ring
Encoding: 730 730 101
Width: 585
Flags: W
LayerCount: 2
Fore
SplineSet
282 135 m 0
 244 135 195 195 195 359 c 0
 195 527 241 584 282 584 c 0
 322 584 368 527 368 359 c 0
 368 196 318 135 282 135 c 0
282 222 m 0
 309 222 332 267 332 359 c 0
 332 458 307 496 282 496 c 0
 256 496 231 458 231 359 c 0
 231 268 254 222 282 222 c 0
EndSplineSet
EndChar

StartChar: cedilla
Encoding: 184 184 102
Width: 245
Flags: W
LayerCount: 2
Fore
SplineSet
137 -642 m 0
 98 -642 68 -572 68 -464 c 0
 68 -446 69 -427 71 -408 c 0
 72 -389 78 -373 85 -373 c 2
 107 -373 l 2
 114 -373 119 -389 117 -409 c 0
 115 -427 114 -444 114 -461 c 0
 114 -514 123 -557 141 -557 c 0
 156 -557 165 -517 165 -407 c 0
 165 -331 155 -254 137 -254 c 2
 124 -254 l 1
 124 -254 119 -255 119 -244 c 2
 119 -173 l 2
 119 -163 120 -156 124 -156 c 2
 149 -156 l 2
 186 -156 212 -259 212 -370 c 0
 212 -548 186 -642 137 -642 c 0
EndSplineSet
EndChar

StartChar: hungarumlaut
Encoding: 733 733 103
Width: 594
Flags: W
LayerCount: 2
Fore
SplineSet
381 1166 m 2
 371 1166 367 1171 367 1198 c 0
 367 1207 367 1219 368 1233 c 2
 389 1543 l 2
 392 1586 398 1598 415 1598 c 2
 470 1598 l 2
 477 1598 480 1586 480 1570 c 0
 480 1559 478 1545 476 1533 c 2
 406 1205 l 1
 402 1181 401 1166 388 1166 c 2
 381 1166 l 2
257 1166 m 2
 247 1166 243 1171 243 1198 c 0
 243 1207 244 1219 245 1233 c 2
 266 1543 l 2
 268 1586 274 1598 290 1598 c 2
 346 1598 l 2
 354 1598 356 1586 356 1570 c 0
 356 1559 355 1545 352 1533 c 2
 284 1205 l 2
 279 1181 278 1166 264 1166 c 2
 257 1166 l 2
EndSplineSet
EndChar

StartChar: caron
Encoding: 711 711 104
Width: 291
Flags: W
LayerCount: 2
Fore
SplineSet
128 1217 m 2
 113 1217 95 1237 84 1269 c 2
 28 1424 l 2
 26 1430 24 1439 24 1446 c 0
 24 1462 28 1476 34 1476 c 2
 46 1476 l 2
 61 1476 82 1462 95 1438 c 2
 132 1370 l 2
 135 1364 139 1362 143 1362 c 0
 147 1362 150 1364 153 1370 c 2
 192 1438 l 1
 204 1461 224 1476 241 1476 c 2
 252 1476 l 2
 257 1476 263 1462 263 1446 c 0
 263 1439 260 1430 258 1424 c 2
 203 1269 l 2
 192 1237 174 1217 158 1217 c 2
 128 1217 l 2
EndSplineSet
EndChar
